<mxfile host="65bd71144e">
    <diagram id="aNz_gXVlY4kM5i3yTjZw" name="Page-1">
        <mxGraphModel dx="2927" dy="947" grid="1" gridSize="10" guides="1" tooltips="1" connect="1" arrows="1" fold="1" page="1" pageScale="1" pageWidth="850" pageHeight="1100" math="1" shadow="0">
            <root>
                <mxCell id="0"/>
                <mxCell id="1" parent="0"/>
                <mxCell id="15" value="Text" style="text;html=1;strokeColor=none;fillColor=none;align=center;verticalAlign=middle;whiteSpace=wrap;rounded=0;" vertex="1" parent="1">
                    <mxGeometry x="1370" y="10" width="60" height="30" as="geometry"/>
                </mxCell>
                <mxCell id="17" value="&lt;h1&gt;Genetic Timetable Generation Algorithm&lt;/h1&gt;&lt;p&gt;This model is a rule-based, mutation-based (crossoverless) genetic algorithm to automatically generate timetables. The goal of the model is to metahueristically determine an optimal ordering of flights that satisfies the hard constraints of the problem. Ideally, it will also satisfy the soft constraints too.&lt;/p&gt;&lt;p&gt;&lt;a href=&quot;https://towardsdatascience.com/genetic-algorithm-a-simple-and-intuitive-guide-51c04cc1f9ed&quot;&gt;Note difference in opinions on selection algorithms&lt;/a&gt;&lt;/p&gt;" style="text;html=1;strokeColor=none;fillColor=none;spacing=5;spacingTop=-20;whiteSpace=wrap;overflow=hidden;rounded=0;" vertex="1" parent="1">
                    <mxGeometry x="180" y="22" width="490" height="138" as="geometry"/>
                </mxCell>
                <mxCell id="20" value="&lt;h1&gt;Hard Constraints&lt;/h1&gt;&lt;p&gt;This model is a rule-based genetic algorithm to automatically generate timetables. The goal of the model is to hueristically determine an optimal ordering of flights that satisfies the hard constraints of the problem. Ideally, it will also satisfy the soft constraints too&lt;/p&gt;" style="text;html=1;strokeColor=none;fillColor=none;spacing=5;spacingTop=-20;whiteSpace=wrap;overflow=hidden;rounded=0;" vertex="1" parent="1">
                    <mxGeometry x="-560" y="90" width="490" height="100" as="geometry"/>
                </mxCell>
                <mxCell id="21" value="&lt;h1&gt;Soft Constraints&lt;/h1&gt;&lt;p&gt;This model is a rule-based genetic algorithm to automatically generate timetables. The goal of the model is to hueristically determine an optimal ordering of flights that satisfies the hard constraints of the problem. Ideally, it will also satisfy the soft constraints too&lt;/p&gt;" style="text;html=1;strokeColor=none;fillColor=none;spacing=5;spacingTop=-20;whiteSpace=wrap;overflow=hidden;rounded=0;" vertex="1" parent="1">
                    <mxGeometry x="-570" y="330" width="490" height="100" as="geometry"/>
                </mxCell>
                <mxCell id="22" value="&lt;h1&gt;Genetic Algorithm Hyperparameters&lt;/h1&gt;&lt;p&gt;- Population size (N):&amp;nbsp; 32?&lt;/p&gt;&lt;p&gt;- Mutation rate (R): 5 / N&lt;/p&gt;&lt;p&gt;- Number of parents (P&lt;sub&gt;n&lt;/sub&gt;): 2?&lt;/p&gt;&lt;p&gt;- Fitness threshold (T): ?&lt;/p&gt;&lt;p&gt;-&amp;nbsp;Candidate timetable outfile (de)serialization format: csv&amp;nbsp;&lt;/p&gt;&lt;p&gt;- Candidate timetable outfile name: candidate.csv&lt;/p&gt;" style="text;html=1;strokeColor=none;fillColor=none;spacing=5;spacingTop=-20;whiteSpace=wrap;overflow=hidden;rounded=0;" vertex="1" parent="1">
                    <mxGeometry x="910" y="60" width="490" height="200" as="geometry"/>
                </mxCell>
                <mxCell id="23" value="Start" style="ellipse;whiteSpace=wrap;html=1;" vertex="1" parent="1">
                    <mxGeometry x="235" y="190" width="126" height="50" as="geometry"/>
                </mxCell>
                <mxCell id="24" value="Generate random population" style="rounded=1;whiteSpace=wrap;html=1;" vertex="1" parent="1">
                    <mxGeometry x="208" y="400" width="182" height="40" as="geometry"/>
                </mxCell>
                <mxCell id="25" value="" style="endArrow=classic;html=1;exitX=0.5;exitY=1;exitDx=0;exitDy=0;entryX=0.5;entryY=0;entryDx=0;entryDy=0;" edge="1" parent="1" source="23" target="56">
                    <mxGeometry width="50" height="50" relative="1" as="geometry">
                        <mxPoint x="273" y="510" as="sourcePoint"/>
                        <mxPoint x="470" y="260" as="targetPoint"/>
                    </mxGeometry>
                </mxCell>
                <mxCell id="26" value="Fitness evaluation" style="rounded=1;whiteSpace=wrap;html=1;" vertex="1" parent="1">
                    <mxGeometry x="208" y="490" width="180" height="40" as="geometry"/>
                </mxCell>
                <mxCell id="27" value="" style="endArrow=classic;html=1;exitX=0.5;exitY=1;exitDx=0;exitDy=0;entryX=0.5;entryY=0;entryDx=0;entryDy=0;" edge="1" parent="1" source="24" target="26">
                    <mxGeometry width="50" height="50" relative="1" as="geometry">
                        <mxPoint x="308" y="350" as="sourcePoint"/>
                        <mxPoint x="308" y="410" as="targetPoint"/>
                    </mxGeometry>
                </mxCell>
                <mxCell id="29" value="" style="endArrow=classic;html=1;exitX=0.5;exitY=1;exitDx=0;exitDy=0;entryX=0.5;entryY=0;entryDx=0;entryDy=0;" edge="1" parent="1" source="26">
                    <mxGeometry width="50" height="50" relative="1" as="geometry">
                        <mxPoint x="308" y="450" as="sourcePoint"/>
                        <mxPoint x="298" y="580" as="targetPoint"/>
                    </mxGeometry>
                </mxCell>
                <mxCell id="32" value="Serialize candidate timetable" style="shape=parallelogram;perimeter=parallelogramPerimeter;whiteSpace=wrap;html=1;fixedSize=1;" vertex="1" parent="1">
                    <mxGeometry x="193" y="860" width="210" height="70" as="geometry"/>
                </mxCell>
                <mxCell id="34" value="Stop" style="ellipse;whiteSpace=wrap;html=1;" vertex="1" parent="1">
                    <mxGeometry x="235" y="970" width="126" height="50" as="geometry"/>
                </mxCell>
                <mxCell id="35" value="" style="endArrow=classic;html=1;entryX=0.5;entryY=0;entryDx=0;entryDy=0;exitX=0.5;exitY=1;exitDx=0;exitDy=0;" edge="1" parent="1" source="32" target="34">
                    <mxGeometry width="50" height="50" relative="1" as="geometry">
                        <mxPoint x="828" y="990" as="sourcePoint"/>
                        <mxPoint x="978" y="940" as="targetPoint"/>
                    </mxGeometry>
                </mxCell>
                <mxCell id="40" value="yes" style="endArrow=classic;html=1;exitX=0.5;exitY=1;exitDx=0;exitDy=0;entryX=0.5;entryY=0;entryDx=0;entryDy=0;" edge="1" parent="1" source="51" target="32">
                    <mxGeometry relative="1" as="geometry">
                        <mxPoint x="293" y="810" as="sourcePoint"/>
                        <mxPoint x="178" y="840" as="targetPoint"/>
                    </mxGeometry>
                </mxCell>
                <mxCell id="42" value="" style="endArrow=classic;html=1;exitX=1;exitY=0.5;exitDx=0;exitDy=0;entryX=0;entryY=0.5;entryDx=0;entryDy=0;" edge="1" parent="1" source="51" target="53">
                    <mxGeometry relative="1" as="geometry">
                        <mxPoint x="408" y="640" as="sourcePoint"/>
                        <mxPoint x="478" y="735" as="targetPoint"/>
                    </mxGeometry>
                </mxCell>
                <mxCell id="43" value="no" style="edgeLabel;resizable=0;html=1;align=center;verticalAlign=middle;" connectable="0" vertex="1" parent="42">
                    <mxGeometry relative="1" as="geometry"/>
                </mxCell>
                <mxCell id="45" value="&lt;h1&gt;Flowchart Shape Legend&lt;/h1&gt;" style="text;html=1;strokeColor=none;fillColor=none;spacing=5;spacingTop=-20;whiteSpace=wrap;overflow=hidden;rounded=0;" vertex="1" parent="1">
                    <mxGeometry x="-558" y="680" width="300" height="40" as="geometry"/>
                </mxCell>
                <mxCell id="46" value="Start / Stop" style="ellipse;whiteSpace=wrap;html=1;" vertex="1" parent="1">
                    <mxGeometry x="-558" y="740" width="126" height="50" as="geometry"/>
                </mxCell>
                <mxCell id="47" value="Process Step" style="rounded=1;whiteSpace=wrap;html=1;" vertex="1" parent="1">
                    <mxGeometry x="-358" y="745" width="180" height="40" as="geometry"/>
                </mxCell>
                <mxCell id="48" value="Decision" style="rhombus;whiteSpace=wrap;html=1;" vertex="1" parent="1">
                    <mxGeometry x="-570" y="820" width="150" height="80" as="geometry"/>
                </mxCell>
                <mxCell id="49" value="Input / Output" style="shape=parallelogram;perimeter=parallelogramPerimeter;whiteSpace=wrap;html=1;fixedSize=1;" vertex="1" parent="1">
                    <mxGeometry x="-373" y="825" width="210" height="70" as="geometry"/>
                </mxCell>
                <mxCell id="50" value="Select timetable with highest fitness" style="rounded=1;whiteSpace=wrap;html=1;" vertex="1" parent="1">
                    <mxGeometry x="193" y="580" width="210" height="40" as="geometry"/>
                </mxCell>
                <mxCell id="51" value="Is the fitness of the &lt;br&gt;timetable above the fitness&lt;br&gt;threshold?" style="rhombus;whiteSpace=wrap;html=1;" vertex="1" parent="1">
                    <mxGeometry x="188" y="670" width="220" height="110" as="geometry"/>
                </mxCell>
                <mxCell id="52" value="" style="endArrow=classic;html=1;exitX=0.5;exitY=1;exitDx=0;exitDy=0;entryX=0.5;entryY=0;entryDx=0;entryDy=0;" edge="1" parent="1" source="50" target="51">
                    <mxGeometry width="50" height="50" relative="1" as="geometry">
                        <mxPoint x="348" y="630" as="sourcePoint"/>
                        <mxPoint x="348" y="680" as="targetPoint"/>
                    </mxGeometry>
                </mxCell>
                <mxCell id="53" value="Generate new generation mutated children of from most fit parent&amp;nbsp;" style="rounded=1;whiteSpace=wrap;html=1;" vertex="1" parent="1">
                    <mxGeometry x="473" y="705" width="190" height="40" as="geometry"/>
                </mxCell>
                <mxCell id="54" value="" style="endArrow=classic;html=1;exitX=0.5;exitY=0;exitDx=0;exitDy=0;entryX=1;entryY=0.5;entryDx=0;entryDy=0;" edge="1" parent="1" source="53" target="26">
                    <mxGeometry width="50" height="50" relative="1" as="geometry">
                        <mxPoint x="548" y="565" as="sourcePoint"/>
                        <mxPoint x="568" y="510" as="targetPoint"/>
                        <Array as="points">
                            <mxPoint x="568" y="510"/>
                        </Array>
                    </mxGeometry>
                </mxCell>
                <mxCell id="55" value="&lt;h1&gt;Genetic Algorithm Component Mappings&lt;/h1&gt;&lt;div&gt;- Population: List of timetables&lt;br&gt;&amp;nbsp;- Chromosomes: Flights in each timetable&lt;br&gt;&amp;nbsp;- Genes: mutable flight attributes (departure time, aircraft)&lt;br&gt;&lt;/div&gt;" style="text;html=1;strokeColor=none;fillColor=none;spacing=5;spacingTop=-20;whiteSpace=wrap;overflow=hidden;rounded=0;" vertex="1" parent="1">
                    <mxGeometry x="910" y="290" width="490" height="100" as="geometry"/>
                </mxCell>
                <mxCell id="56" value="Read flight data from CSV" style="shape=parallelogram;perimeter=parallelogramPerimeter;whiteSpace=wrap;html=1;fixedSize=1;" vertex="1" parent="1">
                    <mxGeometry x="193" y="280" width="210" height="70" as="geometry"/>
                </mxCell>
                <mxCell id="57" value="" style="endArrow=classic;html=1;exitX=0.5;exitY=1;exitDx=0;exitDy=0;entryX=0.5;entryY=0;entryDx=0;entryDy=0;" edge="1" parent="1" source="56" target="24">
                    <mxGeometry width="50" height="50" relative="1" as="geometry">
                        <mxPoint x="308" y="250" as="sourcePoint"/>
                        <mxPoint x="308" y="290" as="targetPoint"/>
                    </mxGeometry>
                </mxCell>
                <mxCell id="58" value="&lt;h1&gt;Fitness Function&lt;/h1&gt;&lt;div&gt;Define the fitness function here&lt;/div&gt;" style="text;html=1;strokeColor=none;fillColor=none;spacing=5;spacingTop=-20;whiteSpace=wrap;overflow=hidden;rounded=0;" vertex="1" parent="1">
                    <mxGeometry x="910" y="420" width="490" height="160" as="geometry"/>
                </mxCell>
            </root>
        </mxGraphModel>
    </diagram>
</mxfile>